<?xml version="1.0" ?><svg data-name="Layer 1" id="Layer_1" viewBox="0 0 60 60" xmlns="http://www.w3.org/2000/svg" xmlns:xlink="http://www.w3.org/1999/xlink"><defs><style>.cls-1,.cls-4{fill:none;}.cls-1{clip-rule:evenodd;}.cls-2{clip-path:url(#clip-path);}.cls-3{fill:#5ecb66;}.cls-4{stroke:#314e55;stroke-linecap:round;stroke-linejoin:round;stroke-width:2px;}</style><clipPath id="clip-path"><path class="cls-1" d="M56.85,32.79A26.29,26.29,0,0,0,57,30,26,26,0,1,0,23.46,54.89c-5.55-14-13.62-34.73-13-35.39,1-1,7.5-2.5,9-2S26,37.5,33,38s10.5-5,9.5-7.5-6.5-15-6.5-15l8-2S50,28,52.5,31A6.49,6.49,0,0,0,56.85,32.79ZM35.15,55.67A26,26,0,0,0,55.42,38.94,16.53,16.53,0,0,1,51,38.5c-3.5-1-4.5-2.5-4.5-2.5A12.35,12.35,0,0,1,41,42.5c-4,2-11,1.5-11,1.5Z"/></clipPath></defs><title/><g class="cls-2"><rect class="cls-3" height="61.67" width="62" y="-1"/></g><path class="cls-4" d="M56.85,32.79A26.3,26.3,0,0,0,57,30,26,26,0,1,0,23.46,54.89c-5.55-14-13.62-34.73-13-35.39,1-1,7.5-2.5,9-2S26,37.5,33,38s10.5-5,9.5-7.5-6.5-15-6.5-15l8-2S50,28,52.5,31A6.49,6.49,0,0,0,56.85,32.79ZM35.15,55.67A26,26,0,0,0,55.42,38.94,16.53,16.53,0,0,1,51,38.5c-3.5-1-4.5-2.5-4.5-2.5A12.35,12.35,0,0,1,41,42.5c-4,2-11,1.5-11,1.5Z"/></svg>
